<?xml version="1.0" encoding="utf-8"?>
<!-- Generator: Adobe Illustrator 15.1.0, SVG Export Plug-In . SVG Version: 6.00 Build 0)  -->
<!DOCTYPE svg PUBLIC "-//W3C//DTD SVG 1.1//EN" "http://www.w3.org/Graphics/SVG/1.1/DTD/svg11.dtd">
<svg version="1.1" id="Layer_1" xmlns="http://www.w3.org/2000/svg" xmlns:xlink="http://www.w3.org/1999/xlink" x="0px" y="0px"
	 width="864px" height="864px" viewBox="0 0 864 864" enable-background="new 0 0 864 864" xml:space="preserve">
<g>
	<path d="M215.271,226.132c0,34.75-8.067,56.469-22.339,81.911c-21.719,36.612-62.674,90.599-86.875,129.693
		c-17.996,29.785-22.339,44.058-22.339,80.049v40.334h131.554v55.229H26.627v-95.563c0-31.027,5.585-62.054,24.821-95.563
		c21.098-37.232,67.019-93.081,88.737-130.313c14.272-24.822,18.616-45.299,18.616-67.639c0-37.232-14.272-50.264-40.956-50.264
		c-27.304,0-42.816,14.272-42.816,42.197v14.893H22.284v-16.134c0-59.572,35.37-96.184,96.804-96.184
		C176.797,118.778,215.271,150.426,215.271,226.132z"/>
	<path d="M454.795,524.61c0,60.813-44.678,97.425-99.906,97.425c-55.848,0-99.906-36.611-99.906-97.425V216.203
		c0-60.813,44.058-97.425,99.906-97.425c55.228,0,99.906,36.612,99.906,97.425V524.61z M311.451,523.99
		c0,27.925,17.996,42.816,43.438,42.816c25.442,0,43.438-14.892,43.438-42.816V216.824c0-27.924-17.996-42.817-43.438-42.817
		c-25.442,0-43.438,14.893-43.438,42.817V523.99z"/>
	<path d="M691.219,226.132c0,34.75-8.067,56.469-22.34,81.911c-21.72,36.612-62.674,90.599-86.875,129.693
		c-17.996,29.785-22.34,44.058-22.34,80.049v40.334h131.555v55.229H502.575v-95.563c0-31.027,5.584-62.054,24.82-95.563
		c21.099-37.232,67.019-93.081,88.738-130.313c14.271-24.822,18.615-45.299,18.615-67.639c0-37.232-14.272-50.264-40.956-50.264
		c-27.303,0-42.816,14.272-42.816,42.197v14.893H498.23v-16.134c0-59.572,35.37-96.184,96.805-96.184
		C652.744,118.778,691.219,150.426,691.219,226.132z"/>
	<path d="M738.375,167.801c20.478,0,28.545-15.514,28.545-40.335h57.09v485.881h-57.09V215.583h-52.126v-47.781H738.375z"/>
</g>
<g>
	<path d="M34.203,630.559l11.964,68.882h-7.829l-1.583-9.939H23.91l-1.496,9.939h-7.829l11.612-68.882H34.203z M24.965,682.727
		h10.733l-5.454-34.485L24.965,682.727z"/>
	<path d="M57.164,645.69l1.231,3.079c2.728-2.463,6.246-3.783,9.677-3.783c6.158,0,11.26,4.223,11.26,13.021v41.434h-7.83v-39.763
		c0-4.398-1.671-6.949-5.63-6.949c-2.287,0-4.311,0.967-6.246,2.815v43.896h-7.83v-53.75H57.164z"/>
	<path d="M114.258,645.69v68.794h-7.83v-17.946c-2.463,1.847-5.278,2.727-8.182,2.727c-6.069,0-11.172-4.222-11.172-13.02V645.69
		h7.83v38.883c0,4.663,1.935,6.95,5.542,6.95c2.023,0,4.047-0.88,5.982-2.727V645.69H114.258z"/>
	<path d="M125.166,645.69v-9.413l7.566-3.166v12.579h8.973v6.599h-8.973v33.956c0,4.047,2.287,6.51,5.718,6.51
		c1.407,0,2.639-0.439,3.958-1.407l2.111,6.686c-1.935,1.407-4.574,2.111-7.301,2.111c-8.445,0-12.052-6.334-12.052-13.899v-33.956
		h-5.806v-6.599H125.166z"/>
	<path d="M157.276,627.744v20.058c2.463-1.848,5.455-2.815,8.445-2.815c6.158,0,11.261,4.223,11.261,13.021v41.434h-7.83v-39.763
		c0-4.398-1.671-6.949-5.63-6.949c-2.287,0-4.311,0.967-6.246,2.815v43.896h-7.83V629.68L157.276,627.744z"/>
	<path d="M193.346,633.287c0,2.727-1.496,4.926-4.663,4.926c-2.991,0-4.486-2.199-4.486-4.926c0-2.641,1.495-4.751,4.486-4.751
		C191.85,628.536,193.346,630.646,193.346,633.287z M192.73,645.69v53.75h-7.83v-53.75H192.73z"/>
	<path d="M206.189,645.69l1.232,3.079c2.727-2.463,6.246-3.783,9.677-3.783c6.158,0,11.26,4.223,11.26,13.021v41.434h-7.83v-39.763
		c0-4.398-1.672-6.949-5.63-6.949c-2.287,0-4.311,0.967-6.246,2.815v43.896h-7.83v-53.75H206.189z"/>
	<path d="M235.925,658.007c0-8.094,5.894-13.021,13.372-13.021c2.639,0,5.103,0.616,7.126,1.848l9.765-0.527l-4.398,6.772
		c0.528,1.496,0.879,3.167,0.879,4.928v14.251c0,8.094-5.981,13.02-13.372,13.02c-1.055,0-2.111-0.088-3.079-0.264
		c-1.407,1.144-2.111,2.463-2.111,4.223c0,2.199,1.319,3.694,4.486,3.694h15.395l-3.079,6.687h-15.043
		c-3.871,0-5.366,1.759-5.366,4.134c0,2.288,1.495,4.135,4.398,4.135h12.316l-3.079,6.599h-10.732
		c-7.214,0-10.908-4.928-10.908-10.382c0-4.222,2.111-7.917,6.51-9.676c-0.792-1.145-1.231-2.639-1.231-4.399
		c0-2.991,1.495-5.189,3.871-6.772c-3.519-2.112-5.718-5.982-5.718-10.997V658.007z M243.315,672.17c0,3.87,2.463,5.895,5.982,5.895
		c3.431,0,5.982-2.024,5.982-5.895v-14.075c0-3.959-2.552-5.895-5.982-5.895c-3.519,0-5.982,1.936-5.982,5.895V672.17z"/>
	<path d="M295.57,633.287c0,2.727-1.496,4.926-4.663,4.926c-2.99,0-4.486-2.199-4.486-4.926c0-2.641,1.496-4.751,4.486-4.751
		C294.075,628.536,295.57,630.646,295.57,633.287z M294.955,645.69v53.75h-7.83v-53.75H294.955z"/>
	<path d="M328.384,656.774v3.52h-7.125v-2.463c0-3.52-2.023-5.454-5.894-5.454c-4.047,0-5.982,2.022-5.982,5.189
		c0,1.848,0.616,3.695,3.254,6.511c3.255,3.605,9.149,8.093,12.229,11.963c2.903,3.607,3.783,7.303,3.783,10.82
		c0,7.83-4.135,13.284-13.547,13.284c-8.533,0-13.724-4.663-13.724-12.492v-6.07l7.126,1.849v3.605c0,3.432,2.2,5.631,6.598,5.631
		c4.223,0,6.246-2.023,6.246-6.069c0-2.464-0.704-4.047-3.079-6.774c-3.958-4.574-9.149-8.357-12.228-11.964
		c-3.167-3.782-4.223-7.302-4.223-10.732c0-7.829,5.366-12.141,13.636-12.141C324.425,644.986,328.384,650.265,328.384,656.774z"/>
	<path d="M359.351,627.744v20.321c2.463-1.935,5.542-3.079,8.621-3.079c5.894,0,11.084,4.223,11.084,13.021v29.117
		c0,8.798-5.19,13.021-11.084,13.021c-3.607,0-7.125-1.496-9.765-4.047l-1.319,3.343h-5.366V629.68L359.351,627.744z
		 M359.351,655.808v33.517c1.935,2.023,3.958,3.078,6.421,3.078c3.783,0,5.454-2.551,5.454-6.949v-25.775
		c0-4.398-1.671-6.949-5.454-6.949C363.309,652.729,361.285,653.783,359.351,655.808z"/>
	<path d="M393.395,682.551v4.31c0,3.695,2.375,5.718,5.63,5.718c3.343,0,5.718-2.022,5.718-5.718v-3.43l7.125-1.849v5.542
		c0,8.095-5.806,13.021-13.108,13.021c-7.213,0-12.932-4.926-12.932-13.021v-29.117c0-8.094,5.718-13.021,13.02-13.021
		c6.334,0,13.196,3.431,13.196,14.163c0,6.599-2.639,11.261-8.622,16.188C400.96,677.448,397.617,679.911,393.395,682.551z
		 M393.395,674.985c2.551-1.672,4.663-3.255,6.07-4.575c3.606-3.342,5.014-6.421,5.014-10.732c0-5.542-2.639-7.478-5.718-7.478
		c-3.342,0-5.366,2.287-5.366,6.158V674.985z"/>
	<path d="M422.074,645.69v-9.413l7.565-3.166v12.579h8.974v6.599h-8.974v33.956c0,4.047,2.287,6.51,5.719,6.51
		c1.406,0,2.639-0.439,3.958-1.407l2.112,6.686c-1.937,1.407-4.575,2.111-7.303,2.111c-8.445,0-12.052-6.334-12.052-13.899v-33.956
		h-5.806v-6.599H422.074z"/>
	<path d="M449.171,645.69v-9.413l7.564-3.166v12.579h8.974v6.599h-8.974v33.956c0,4.047,2.287,6.51,5.719,6.51
		c1.407,0,2.639-0.439,3.958-1.407l2.112,6.686c-1.937,1.407-4.575,2.111-7.303,2.111c-8.445,0-12.051-6.334-12.051-13.899v-33.956
		h-5.807v-6.599H449.171z"/>
	<path d="M480.576,682.551v4.31c0,3.695,2.375,5.718,5.631,5.718c3.343,0,5.718-2.022,5.718-5.718v-3.43l7.125-1.849v5.542
		c0,8.095-5.805,13.021-13.107,13.021c-7.213,0-12.931-4.926-12.931-13.021v-29.117c0-8.094,5.718-13.021,13.019-13.021
		c6.335,0,13.195,3.431,13.195,14.163c0,6.599-2.639,11.261-8.621,16.188C488.142,677.448,484.8,679.911,480.576,682.551z
		 M480.576,674.985c2.552-1.672,4.662-3.255,6.07-4.575c3.607-3.342,5.015-6.421,5.015-10.732c0-5.542-2.64-7.478-5.719-7.478
		c-3.343,0-5.366,2.287-5.366,6.158V674.985z"/>
	<path d="M526.674,654.224c-1.759-1.056-3.43-1.495-4.926-1.495c-2.991,0-5.454,1.583-7.478,4.574v42.138h-7.829v-53.75h5.366
		l1.495,4.487c2.287-3.432,5.278-5.191,9.062-5.191c2.375,0,4.661,0.704,6.51,2.288L526.674,654.224z"/>
	<path d="M553.066,645.69v-9.413l7.565-3.166v12.579h8.974v6.599h-8.974v33.956c0,4.047,2.287,6.51,5.719,6.51
		c1.406,0,2.639-0.439,3.958-1.407l2.111,6.686c-1.936,1.407-4.575,2.111-7.302,2.111c-8.445,0-12.052-6.334-12.052-13.899v-33.956
		h-5.806v-6.599H553.066z"/>
	<path d="M585.177,627.744v20.058c2.463-1.848,5.454-2.815,8.445-2.815c6.158,0,11.261,4.223,11.261,13.021v41.434h-7.83v-39.763
		c0-4.398-1.672-6.949-5.63-6.949c-2.288,0-4.312,0.967-6.246,2.815v43.896h-7.829V629.68L585.177,627.744z"/>
	<path d="M613.416,650.969c2.551-3.782,7.39-5.982,12.492-5.982c8.533,0,12.755,6.07,12.755,14.604v39.851h-4.926l-1.407-2.99
		c-2.639,2.198-6.158,3.694-9.854,3.694c-5.894,0-11.348-3.694-11.348-13.899c0-7.917,3.255-12.844,11.084-18.738
		c2.551-1.847,5.718-3.958,9.062-6.069v-1.672c0-4.486-2.111-7.565-6.423-7.565c-2.99,0-5.63,1.583-7.125,4.135L613.416,650.969z
		 M631.274,689.676v-20.673c-2.111,1.319-3.695,2.375-5.19,3.52c-5.542,4.31-7.126,8.093-7.126,12.579
		c0,5.454,2.288,7.653,5.806,7.653C627.227,692.755,629.339,691.611,631.274,689.676z"/>
	<path d="M651.948,645.69l1.23,3.079c2.728-2.463,6.246-3.783,9.678-3.783c6.158,0,11.26,4.223,11.26,13.021v41.434h-7.829v-39.763
		c0-4.398-1.672-6.949-5.63-6.949c-2.288,0-4.312,0.967-6.246,2.815v43.896h-7.829v-53.75H651.948z"/>
	<path d="M724.261,644.548c0,4.926-1.143,8.005-3.166,11.61c-3.079,5.191-8.885,12.845-12.316,18.387
		c-2.551,4.223-3.167,6.246-3.167,11.349v5.718h18.649v7.829h-26.742v-13.547c0-4.399,0.792-8.797,3.519-13.548
		c2.991-5.277,9.5-13.196,12.58-18.475c2.022-3.519,2.639-6.422,2.639-9.588c0-5.279-2.023-7.126-5.807-7.126
		c-3.869,0-6.07,2.022-6.07,5.982v2.11h-7.477v-2.287c0-8.445,5.014-13.635,13.724-13.635
		C718.807,629.328,724.261,633.814,724.261,644.548z"/>
	<path d="M758.218,686.86c0,8.621-6.334,13.813-14.163,13.813c-7.917,0-14.164-5.191-14.164-13.813V643.14
		c0-8.622,6.247-13.812,14.164-13.812c7.829,0,14.163,5.189,14.163,13.812V686.86z M737.896,686.772c0,3.959,2.551,6.07,6.158,6.07
		c3.605,0,6.157-2.111,6.157-6.07v-43.545c0-3.959-2.552-6.07-6.157-6.07c-3.607,0-6.158,2.111-6.158,6.07V686.772z"/>
	<path d="M791.734,644.548c0,4.926-1.143,8.005-3.165,11.61c-3.079,5.191-8.886,12.845-12.316,18.387
		c-2.552,4.223-3.168,6.246-3.168,11.349v5.718h18.649v7.829h-26.742v-13.547c0-4.399,0.792-8.797,3.52-13.548
		c2.99-5.277,9.5-13.196,12.579-18.475c2.022-3.519,2.639-6.422,2.639-9.588c0-5.279-2.022-7.126-5.806-7.126
		c-3.87,0-6.07,2.022-6.07,5.982v2.11h-7.478v-2.287c0-8.445,5.015-13.635,13.724-13.635
		C786.28,629.328,791.734,633.814,791.734,644.548z"/>
	<path d="M825.693,686.86c0,8.621-6.335,13.813-14.164,13.813c-7.918,0-14.163-5.191-14.163-13.813V643.14
		c0-8.622,6.245-13.812,14.163-13.812c7.829,0,14.164,5.189,14.164,13.812V686.86z M805.371,686.772c0,3.959,2.552,6.07,6.158,6.07
		s6.158-2.111,6.158-6.07v-43.545c0-3.959-2.552-6.07-6.158-6.07s-6.158,2.111-6.158,6.07V686.772z"/>
</g>
</svg>
