<?xml version="1.0" encoding="UTF-8"?>
<svg xmlns="http://www.w3.org/2000/svg" xmlns:xlink="http://www.w3.org/1999/xlink" width="150pt" height="150pt" viewBox="0 0 150 150" version="1.1">
<g id="surface1">
<path style=" stroke:none;fill-rule:nonzero;fill:rgb(0%,0%,0%);fill-opacity:1;" d="M 139.792969 39.148438 C 133.09375 27.667969 124.007812 18.582031 112.527344 11.882812 C 101.046875 5.183594 88.515625 1.832031 74.921875 1.832031 C 61.328125 1.832031 48.792969 5.183594 37.316406 11.882812 C 25.835938 18.582031 16.75 27.667969 10.046875 39.148438 C 3.347656 50.625 0 63.160156 0 76.753906 C 0 93.078125 4.761719 107.757812 14.292969 120.796875 C 23.820312 133.839844 36.128906 142.863281 51.214844 147.867188 C 52.972656 148.195312 54.273438 147.964844 55.117188 147.1875 C 55.960938 146.40625 56.386719 145.429688 56.386719 144.261719 C 56.386719 144.066406 56.367188 142.3125 56.335938 138.992188 C 56.300781 135.675781 56.285156 132.78125 56.285156 130.3125 L 54.042969 130.699219 C 52.613281 130.964844 50.808594 131.074219 48.628906 131.042969 C 46.449219 131.011719 44.191406 130.785156 41.847656 130.359375 C 39.507812 129.9375 37.328125 128.964844 35.3125 127.433594 C 33.296875 125.90625 31.867188 123.90625 31.019531 121.4375 L 30.046875 119.191406 C 29.394531 117.695312 28.371094 116.035156 26.972656 114.21875 C 25.574219 112.394531 24.160156 111.160156 22.730469 110.511719 L 22.046875 110.019531 C 21.589844 109.695312 21.167969 109.304688 20.777344 108.851562 C 20.386719 108.394531 20.097656 107.941406 19.902344 107.484375 C 19.707031 107.027344 19.867188 106.652344 20.386719 106.359375 C 20.910156 106.066406 21.851562 105.925781 23.21875 105.925781 L 25.167969 106.214844 C 26.46875 106.476562 28.078125 107.253906 29.996094 108.554688 C 31.914062 109.855469 33.492188 111.546875 34.726562 113.628906 C 36.222656 116.296875 38.027344 118.328125 40.140625 119.726562 C 42.253906 121.125 44.386719 121.824219 46.53125 121.824219 C 48.675781 121.824219 50.53125 121.660156 52.09375 121.335938 C 53.652344 121.011719 55.117188 120.523438 56.480469 119.871094 C 57.066406 115.511719 58.660156 112.164062 61.261719 109.824219 C 57.554688 109.433594 54.222656 108.847656 51.261719 108.066406 C 48.304688 107.285156 45.246094 106.019531 42.09375 104.261719 C 38.9375 102.503906 36.320312 100.324219 34.238281 97.726562 C 32.160156 95.125 30.449219 91.707031 29.117188 87.480469 C 27.785156 83.253906 27.117188 78.375 27.117188 72.847656 C 27.117188 64.976562 29.6875 58.28125 34.828125 52.753906 C 32.417969 46.835938 32.648438 40.203125 35.507812 32.851562 C 37.394531 32.265625 40.191406 32.707031 43.898438 34.167969 C 47.605469 35.632812 50.320312 36.886719 52.042969 37.925781 C 53.769531 38.964844 55.148438 39.84375 56.191406 40.558594 C 62.238281 38.867188 68.484375 38.023438 74.921875 38.023438 C 81.359375 38.023438 87.601562 38.867188 93.652344 40.558594 L 97.359375 38.21875 C 99.894531 36.65625 102.890625 35.226562 106.332031 33.925781 C 109.78125 32.625 112.417969 32.265625 114.238281 32.851562 C 117.164062 40.203125 117.425781 46.835938 115.015625 52.753906 C 120.15625 58.28125 122.726562 64.980469 122.726562 72.851562 C 122.726562 78.378906 122.054688 83.269531 120.726562 87.53125 C 119.390625 91.792969 117.671875 95.203125 115.558594 97.773438 C 113.441406 100.34375 110.808594 102.507812 107.652344 104.261719 C 104.5 106.019531 101.441406 107.285156 98.484375 108.066406 C 95.523438 108.847656 92.191406 109.433594 88.484375 109.824219 C 91.863281 112.75 93.554688 117.367188 93.554688 123.675781 L 93.554688 144.257812 C 93.554688 145.429688 93.960938 146.402344 94.777344 147.183594 C 95.589844 147.960938 96.871094 148.191406 98.628906 147.867188 C 113.71875 142.859375 126.027344 133.835938 135.554688 120.796875 C 145.078125 107.757812 149.84375 93.074219 149.84375 76.75 C 149.839844 63.160156 146.488281 50.625 139.792969 39.148438 Z M 139.792969 39.148438 "/>
</g>
</svg>
